<?xml version="1.0" standalone="no"?>
<!DOCTYPE svg PUBLIC "-//W3C//DTD SVG 20010904//EN"
 "http://www.w3.org/TR/2001/REC-SVG-20010904/DTD/svg10.dtd">
<svg version="1.0" xmlns="http://www.w3.org/2000/svg"
 width="80.000000pt" height="40.000000pt" viewBox="0 0 500.000000 317.000000"
 preserveAspectRatio="xMidYMid meet">
<metadata>
Created by potrace 1.16, written by Peter Selinger 2001-2019
</metadata>
<g transform="translate(0.000000,317.000000) scale(0.100000,-0.100000)"
fill="#000000" stroke="none">
<path d="M1 2428 c1 -674 2 -736 15 -664 63 346 306 674 684 922 389 255 892
417 1460 469 116 11 -26 13 -1012 14 l-1148 1 1 -742z"/>
<path d="M2845 3155 c371 -36 669 -104 970 -222 654 -257 1081 -685 1169
-1170 13 -71 14 -8 15 665 l1 742 -1142 -1 c-982 -1 -1125 -3 -1013 -14z"/>
<path d="M2140 3065 c-360 -37 -633 -101 -945 -222 -245 -95 -537 -273 -700
-426 l-30 -29 40 20 c192 94 404 85 775 -33 41 -13 181 -57 310 -98 368 -118
456 -144 590 -176 272 -64 347 -74 530 -75 171 0 234 11 350 65 100 47 185
127 237 224 38 70 44 54 8 -23 -74 -158 -194 -260 -365 -308 -87 -24 -313 -29
-455 -10 -66 9 -133 19 -149 23 -18 4 -27 2 -23 -4 3 -5 7 -57 8 -115 l1 -105
37 13 c70 25 153 12 199 -33 44 -42 52 -75 52 -226 0 -128 2 -147 19 -169 13
-16 18 -33 14 -47 -5 -21 -10 -22 -117 -19 -103 3 -111 4 -111 23 0 11 8 31
17 44 15 20 18 46 18 156 0 147 -7 165 -66 165 -60 -1 -64 -13 -64 -167 0
-113 3 -143 15 -153 8 -7 15 -26 15 -42 l0 -29 -117 3 c-132 3 -144 11 -103
68 20 28 21 38 18 293 -3 238 -5 265 -21 281 -10 10 -17 28 -15 40 3 19 11 21
97 26 l94 5 -59 13 c-120 27 -344 95 -725 222 -381 127 -582 180 -678 180 -61
0 -189 -28 -236 -52 -203 -103 -315 -280 -315 -496 0 -211 89 -408 207 -458
41 -18 105 -18 146 0 84 35 168 171 205 331 33 142 34 163 11 186 -11 11 -19
30 -17 42 3 21 7 22 122 22 l119 0 51 -150 c45 -136 51 -147 58 -120 5 17 23
84 41 150 l32 120 130 0 c114 0 130 -2 133 -17 2 -9 -6 -30 -18 -46 l-21 -28
33 -259 c29 -230 35 -262 56 -287 13 -15 22 -36 20 -45 -3 -16 -17 -18 -133
-18 -124 0 -130 1 -133 21 -2 11 6 28 18 39 14 13 20 30 20 59 0 31 -23 233
-41 356 -1 9 -37 -100 -70 -213 -17 -59 -36 -110 -41 -113 -20 -12 -99 8 -128
33 -42 34 -65 84 -91 189 -22 91 -39 127 -39 85 0 -81 -68 -243 -133 -317 -91
-103 -232 -127 -362 -61 -60 30 -158 134 -194 206 -66 130 -90 322 -57 449 8
28 13 52 10 52 -6 0 -71 -144 -88 -195 -61 -190 -61 -409 0 -600 36 -111 138
-292 218 -385 69 -81 202 -202 240 -219 139 -61 186 -60 186 3 0 24 -10 46
-35 76 -50 60 -43 100 15 100 36 0 56 -25 88 -107 44 -111 69 -133 153 -133
45 0 89 34 89 70 0 56 -93 165 -165 196 -19 8 -57 14 -85 14 -89 0 -150 50
-150 122 0 105 80 161 178 127 35 -12 58 -42 179 -224 44 -66 87 -126 96 -134
15 -12 17 -9 17 28 0 51 22 97 51 106 35 11 86 -4 104 -31 20 -31 12 -57 -26
-84 -38 -28 -37 -38 6 -46 30 -5 51 1 128 40 54 27 105 46 125 46 65 0 91 -33
56 -71 -9 -11 -14 -25 -10 -35 6 -15 18 -16 112 -10 90 6 110 4 147 -12 51
-23 107 -84 107 -117 0 -36 -34 -65 -73 -65 -39 0 -59 19 -77 73 -17 55 -46
65 -104 38 -52 -26 -116 -87 -116 -112 0 -37 64 -69 138 -69 28 0 35 5 43 30
20 56 76 52 140 -10 33 -32 49 -40 78 -40 58 0 171 34 226 67 28 17 77 47 110
67 82 50 171 76 260 76 56 0 78 -4 96 -19 43 -35 3 -55 -251 -126 -135 -38
-208 -65 -222 -83 -12 -13 1 -15 112 -9 101 4 131 2 158 -10 39 -19 41 -38 5
-57 -54 -27 -259 -87 -353 -102 -131 -21 -164 -56 -97 -101 65 -45 118 -53
372 -60 612 -15 1143 95 1627 338 112 56 121 59 188 58 38 -1 70 -4 70 -8 0
-4 -39 -30 -87 -58 -389 -228 -856 -365 -1403 -412 -56 -5 375 -9 1053 -10
l1147 -1 -1 743 c-1 673 -2 735 -15 663 -18 -101 -56 -209 -111 -321 -58 -116
-66 -125 -118 -125 -23 0 -44 3 -48 6 -3 4 8 27 25 51 44 65 113 207 136 283
49 160 54 367 13 522 -94 356 -405 694 -842 913 -338 170 -695 274 -1119 325
-145 18 -628 21 -780 5z m-580 -341 c0 -55 2 -64 14 -55 23 19 99 24 121 8 17
-13 21 -30 23 -100 4 -76 6 -86 25 -91 43 -11 57 9 57 84 0 59 -3 71 -20 80
-28 15 -18 27 26 32 24 3 38 0 41 -9 4 -10 9 -10 26 2 29 20 76 19 84 -1 9
-24 -24 -46 -48 -33 -13 6 -25 6 -39 -1 -17 -9 -20 -21 -20 -76 0 -57 3 -67
20 -71 11 -3 20 -11 20 -18 0 -9 -32 -13 -130 -13 -121 0 -166 9 -123 25 26 9
33 23 33 64 0 56 -11 100 -27 106 -8 3 -30 -1 -49 -10 -34 -16 -34 -18 -34
-81 0 -55 3 -67 20 -76 33 -18 13 -30 -46 -29 -60 2 -76 12 -44 29 18 10 20
20 20 130 0 111 -1 120 -21 131 -23 12 -16 24 16 32 54 13 55 11 55 -59z
m-173 44 c18 0 26 -9 35 -39 6 -22 9 -41 6 -44 -3 -3 -20 8 -38 25 -38 36 -73
46 -109 34 -29 -10 -39 -38 -21 -59 6 -7 43 -21 82 -31 92 -22 123 -50 115
-102 -9 -57 -54 -92 -118 -92 -28 0 -59 5 -70 11 -15 7 -24 7 -34 -1 -9 -7
-15 -8 -19 -1 -13 20 -34 100 -28 105 3 4 25 -14 49 -39 38 -40 47 -45 87 -45
36 0 49 5 64 25 38 48 19 66 -99 99 -64 18 -89 41 -89 82 0 58 43 87 115 79
28 -4 60 -6 72 -7z m736 -89 c25 -11 47 -47 47 -74 0 -12 -16 -15 -75 -15 -72
0 -75 -1 -75 -24 0 -33 37 -76 64 -76 13 0 35 9 49 20 30 24 37 25 37 7 0 -42
-100 -71 -150 -45 -56 29 -72 116 -34 176 26 39 88 53 137 31z m237 -6 c26
-15 40 -39 40 -70 0 -9 -22 -13 -75 -13 -72 0 -75 -1 -75 -24 0 -62 76 -99
115 -56 13 15 22 17 29 10 18 -19 -39 -60 -82 -60 -78 0 -128 58 -117 135 12
82 94 120 165 78z m849 -288 c-11 -33 -22 -68 -25 -77 -4 -10 -10 -18 -14 -18
-5 0 -11 -8 -15 -19 -10 -33 -96 -108 -159 -140 -154 -77 -346 -87 -666 -35
-14 2 -45 7 -70 10 -25 4 -49 10 -55 14 -5 4 -44 15 -85 25 -41 9 -101 26
-134 36 -32 10 -63 16 -69 12 -5 -3 -7 -2 -4 4 3 5 -14 14 -38 21 -50 13 -161
63 -190 86 -18 14 -15 14 30 0 531 -159 757 -199 1027 -182 168 10 277 54 368
148 53 54 78 92 100 154 20 54 19 20 -1 -39z m-2214 -30 c55 -8 123 -20 150
-26 52 -11 328 -97 355 -109 25 -12 60 -27 165 -69 234 -92 228 -100 -15 -21
-466 151 -601 183 -795 184 -131 1 -200 -12 -279 -51 -77 -39 -154 -118 -192
-198 -38 -78 -45 -74 -13 7 93 238 299 331 624 283z m3634 -171 c99 -102 136
-172 128 -241 -15 -132 -194 -168 -250 -50 -22 45 -21 64 3 182 11 53 20 119
20 146 0 27 4 49 9 49 4 0 45 -39 90 -86z m-1249 -381 l5 -192 53 47 c49 44
65 72 42 72 -5 0 -10 14 -10 30 l0 30 120 0 120 0 0 -27 c0 -22 -8 -32 -38
-46 -20 -10 -56 -36 -80 -57 l-43 -39 22 -43 c45 -88 114 -203 131 -218 10 -8
19 -26 20 -40 l3 -25 -120 0 c-118 0 -120 0 -123 23 -2 13 2 29 8 37 12 15 12
15 -39 113 -26 48 -27 48 -53 25 -23 -21 -26 -114 -3 -133 8 -7 15 -25 15 -41
l0 -29 -114 0 c-111 0 -114 0 -118 23 -3 14 3 33 14 47 16 20 18 45 18 284 0
232 -2 264 -17 286 -19 27 -25 49 -17 62 3 5 49 7 102 6 l97 -3 5 -192z m1070
-126 c4 -250 8 -320 18 -326 8 -5 12 -19 10 -32 -3 -23 -5 -24 -115 -27 l-113
-3 0 26 c0 15 7 33 15 41 13 13 15 59 15 288 0 231 -2 275 -15 286 -16 13 -20
51 -8 64 4 4 48 5 98 4 l90 -3 5 -318z m-2537 112 c52 -14 114 -72 127 -117 5
-21 10 -96 10 -168 0 -107 3 -134 16 -144 8 -8 14 -25 12 -39 -3 -26 -5 -26
-91 -29 -55 -2 -94 1 -102 8 -9 8 -20 8 -32 2 -33 -18 -102 -24 -136 -13 -80
27 -121 125 -83 199 29 55 131 124 219 145 33 9 34 18 6 43 -14 13 -36 19 -66
19 -38 0 -49 -5 -74 -33 -20 -22 -37 -32 -52 -30 -19 3 -22 10 -25 55 -3 46 0
54 21 68 27 17 133 43 182 44 17 1 47 -4 68 -10z m1067 0 c20 -6 51 -24 68
-39 53 -46 62 -82 62 -239 0 -111 3 -143 15 -155 8 -8 15 -26 15 -40 l0 -26
-94 0 c-52 0 -96 4 -98 9 -2 6 -26 3 -58 -5 -30 -8 -65 -14 -78 -14 -33 0 -75
24 -106 60 -31 37 -35 103 -11 150 23 45 107 106 180 130 68 23 74 29 50 53
-37 38 -130 24 -155 -22 -7 -14 -21 -21 -41 -21 l-30 0 3 58 c3 54 5 58 38 74
65 32 181 45 240 27z m1110 -21 c73 -42 88 -87 89 -260 1 -107 4 -140 16 -152
8 -8 15 -26 15 -40 l0 -26 -90 0 c-72 0 -92 3 -96 15 -5 11 -10 13 -19 5 -22
-18 -120 -30 -159 -19 -95 26 -125 158 -52 237 28 31 130 87 183 101 48 13 49
32 2 56 -48 25 -87 19 -126 -20 -53 -53 -70 -48 -75 22 l-3 56 44 20 c90 40
206 42 271 5z m630 -175 c0 -169 2 -191 21 -230 33 -68 27 -73 -101 -73 l-110
0 0 29 c0 16 7 34 15 41 12 10 15 43 15 180 0 137 -3 170 -15 180 -8 7 -15 23
-15 36 0 24 2 24 95 24 l95 0 0 -187z m-493 -523 c41 -24 56 -54 56 -107 0
-49 -22 -86 -66 -113 -119 -73 -252 84 -165 195 11 15 30 31 42 35 37 15 100
11 133 -10z m-1276 -172 c129 -68 211 -195 235 -360 6 -44 5 -48 -15 -48 -24
0 -23 -3 -45 95 -21 91 -54 158 -112 223 -44 50 -132 106 -194 124 -15 4 -5 5
23 3 28 -3 74 -18 108 -37z m-176 0 c167 -48 274 -161 319 -335 21 -81 21 -83
-14 -83 -24 0 -31 5 -36 28 -26 116 -79 216 -149 281 -65 59 -112 84 -199 106
-33 9 -65 20 -70 25 -13 13 70 1 149 -22z m780 1 c44 -12 89 -49 111 -91 8
-15 14 -56 14 -93 0 -72 -13 -105 -57 -148 -40 -38 -80 -47 -205 -47 l-108 0
0 195 0 195 103 0 c56 0 120 -5 142 -11z m413 -106 c38 -28 51 -73 51 -180 l1
-93 -45 0 c-34 0 -45 4 -45 15 0 14 -3 14 -30 0 -47 -24 -116 -20 -145 10 -35
34 -34 93 0 125 21 20 39 25 95 28 50 3 70 8 70 18 0 30 -66 41 -140 23 -18
-5 -26 37 -10 56 25 31 156 29 198 -2z m510 -20 c3 -42 2 -43 -27 -43 -55 0
-71 -28 -71 -125 l0 -85 -55 0 -56 0 3 143 3 142 45 0 c31 0 44 -4 43 -12 -4
-16 13 -17 22 -2 10 15 46 29 70 26 16 -2 21 -11 23 -44z m-288 -108 l0 -145
-50 0 -50 0 0 145 0 145 50 0 50 0 0 -145z m441 56 c16 -46 31 -86 33 -88 3
-3 17 36 32 86 l27 91 49 0 c26 0 48 -4 48 -10 0 -30 -128 -326 -155 -357 -27
-32 -38 -37 -88 -41 l-57 -4 0 36 c0 33 2 36 28 36 16 0 37 9 47 20 17 19 15
24 -39 160 -31 77 -56 145 -56 151 0 6 20 9 52 7 l51 -3 28 -84z m-2366 4 c14
-13 25 -36 25 -50 0 -35 -42 -75 -77 -75 -73 0 -97 67 -44 121 36 35 64 37 96
4z"/>
<path d="M4155 1062 c62 -17 95 -54 95 -105 0 -16 -6 -10 -19 20 -26 56 -67
78 -121 63 -43 -12 -60 -33 -60 -77 1 -69 66 -121 131 -103 53 15 74 43 74
101 0 61 -31 97 -91 104 -34 4 -35 4 -9 -3z"/>
<path d="M3420 714 l0 -117 52 5 c68 7 98 41 98 111 0 27 -5 57 -10 68 -15 26
-62 49 -105 49 l-35 0 0 -116z"/>
<path d="M1 743 l-1 -743 1148 2 c631 1 1129 3 1107 5 -550 46 -975 159 -1355
360 -200 105 -342 206 -489 348 -213 205 -351 446 -395 692 -13 71 -14 8 -15
-664z"/>
</g>
</svg>
